<?xml version="1.0" encoding="utf-8"?>
<!-- Generator: Adobe Illustrator 22.0.1, SVG Export Plug-In . SVG Version: 6.00 Build 0)  -->
<svg version="1.1" id="Layer_1" xmlns="http://www.w3.org/2000/svg" xmlns:xlink="http://www.w3.org/1999/xlink" x="0px" y="0px"
	 viewBox="0 0 27 25" style="enable-background:new 0 0 27 25;" xml:space="preserve">
<style type="text/css">
	.st0{fill:#FFFFFF;}
	.st1{fill:#FFC107;}
	.st2{fill-rule:evenodd;clip-rule:evenodd;fill:#FEFEFE;}
</style>
<g transform="translate(0,-952.36218)">
	<g>
		<path class="st0" d="M6.7,963.1c2.7,4.3,4.5,6.1,8.9,8.7l3.6-3.5c1.8,0.5,4.1,1.1,6,1.1c0.6,0,1.2,0.6,1.2,1.2l0,5.4
			c0,0.6-0.6,1.2-1.2,1.2c-15.3,0-24.2-8.6-24.7-23.6c-0.1-0.6,0.6-1.2,1.2-1.2h6.1c0.7,0,1.3,0.6,1.4,0.9c-0.2,2,0.7,4.5,1.2,6.3
			L6.7,963.1z"/>
	</g>
</g>
</svg>
