<?xml version="1.0" encoding="utf-8"?>
<!-- Generator: Adobe Illustrator 21.0.2, SVG Export Plug-In . SVG Version: 6.00 Build 0)  -->
<svg version="1.1" id="Layer_1" xmlns="http://www.w3.org/2000/svg" xmlns:xlink="http://www.w3.org/1999/xlink" x="0px" y="0px"
	 viewBox="0 0 50 50" style="enable-background:new 0 0 50 50;" xml:space="preserve">
<style type="text/css">
	.st0{display:none;}
	.st1{display:inline;opacity:0.6;fill:#ECEFF1;enable-background:new    ;}
	.st2{fill:#FFFFFF;}
</style>
<g id="Фон" class="st0">
	<polyline class="st1" points="868,-629 868,431 -207,431 -207,-629 	"/>
</g>
<g id="Направляющие">
</g>
<g id="Тень" class="st0">
</g>
<path class="st2" d="M35.5,14.2l-24.7,9.6c-0.8,0.3-0.8,1.5,0.1,1.7l6.3,1.9l2.3,7.4c0.2,0.8,1.2,1,1.8,0.4l3.2-3.3l6.4,4.7
	c0.8,0.6,1.9,0.1,2.1-0.8l4.2-20.2C37.4,14.6,36.4,13.8,35.5,14.2L35.5,14.2L35.5,14.2z M32.4,18.6L20.9,28.8
	c-0.1,0.1-0.2,0.2-0.2,0.4l-0.4,3.9c0,0.1-0.2,0.1-0.2,0l-1.8-5.9c-0.1-0.3,0-0.6,0.3-0.7L32,18.2C32.3,18,32.6,18.4,32.4,18.6
	L32.4,18.6L32.4,18.6z"/>
<g id="Хавер_мессенджеров" class="st0">
</g>
</svg>
