<?xml version="1.0" encoding="utf-8"?>
<!-- Generator: Adobe Illustrator 21.0.2, SVG Export Plug-In . SVG Version: 6.00 Build 0)  -->
<svg version="1.1" id="Layer_1" xmlns="http://www.w3.org/2000/svg" xmlns:xlink="http://www.w3.org/1999/xlink" x="0px" y="0px"
	 viewBox="0 0 50 50" style="enable-background:new 0 0 50 50;" xml:space="preserve">
<style type="text/css">
	.st0{display:none;}
	.st1{display:inline;opacity:0.6;fill:#ECEFF1;enable-background:new    ;}
	.st2{fill:#FFFFFF;}
</style>
<g id="Фон" class="st0">
	<polyline class="st1" points="868,-569 868,491 -207,491 -207,-569 	"/>
</g>
<g id="Направляющие">
</g>
<g id="Тень" class="st0">
</g>
<path class="st2" d="M34.8,26.4l-1.2-0.1c0.3-2.6-0.6-5.2-2.5-7.2c-2-2-4.6-2.8-7.2-2.5l-0.1-1.2c2.9-0.3,5.9,0.7,8.2,2.9
	C34.2,20.4,35.2,23.4,34.8,26.4L34.8,26.4z M32.3,26.1L31.2,26c0.2-1.8-0.4-3.8-1.8-5.2c-1.4-1.4-3.3-2-5.2-1.8l-0.1-1.2
	c2.2-0.2,4.4,0.5,6.1,2.2C31.9,21.6,32.6,23.9,32.3,26.1L32.3,26.1z M29.8,25.8l-1.2-0.1c0.1-1.1-0.2-2.2-1.1-3.1
	c-0.8-0.8-2-1.2-3.1-1.1l-0.1-1.2c1.4-0.2,2.9,0.3,4,1.4C29.5,22.9,29.9,24.4,29.8,25.8L29.8,25.8z M34.6,36.2
	c-1.4,1.6-2.5,2.2-6.8,0.8s-8.9-5.8-8.9-5.8s-4.4-4.6-5.8-8.9s-0.8-5.4,0.8-6.8s3-0.4,3.6,0.3c0.7,0.8,2.9,3.8,2.9,3.8
	s0.7,1.3-0.2,2.2c-0.9,0.9-1.6,1-1.9,1.7c-0.2,0.7-0.5,1,0.4,2.5c0.1,0.1,0.1,0.2,0.2,0.3c1.3,1.9,2.9,3.6,4.8,4.8
	c0.1,0.1,0.2,0.1,0.3,0.2c1.5,0.9,1.7,0.7,2.5,0.4c0.7-0.2,0.9-0.9,1.7-1.9c0.9-0.9,2.2-0.2,2.2-0.2s3.1,2.2,3.8,2.9
	C35,33.3,36.1,34.7,34.6,36.2L34.6,36.2z"/>
<g id="Хавер_мессенджеров" class="st0">
</g>
</svg>
