<?xml version="1.0" encoding="utf-8"?>
<!-- Generator: Adobe Illustrator 21.0.2, SVG Export Plug-In . SVG Version: 6.00 Build 0)  -->
<svg version="1.1" id="Layer_1" xmlns="http://www.w3.org/2000/svg" xmlns:xlink="http://www.w3.org/1999/xlink" x="0px" y="0px"
	 viewBox="0 0 50 50" style="enable-background:new 0 0 50 50;" xml:space="preserve">
<style type="text/css">
	.st0{display:none;}
	.st1{display:inline;opacity:0.6;fill:#ECEFF1;enable-background:new    ;}
	.st2{fill:#FFFFFF;}
</style>
<g id="Фон" class="st0">
	<polyline class="st1" points="868,-749 868,311 -207,311 -207,-749 	"/>
</g>
<path class="st2" d="M32.2,25c0,0,3.3-4.6,3.6-6.2c0.1-0.5-0.1-0.9-0.7-0.9c0,0-1.9,0-2.9,0c-0.7,0-0.9,0.3-1.1,0.7
	c0,0-1.5,3.3-3.4,5.4c-0.6,0.7-0.9,0.9-1.2,0.9c-0.3,0-0.4-0.2-0.4-0.8v-5.3c0-0.7-0.1-1-0.7-1h-4.6c-0.3,0-0.6,0.2-0.6,0.5
	c0,0.7,1.1,0.9,1.1,2.7v4c0,0.8,0,1.1-0.4,1.1c-1,0-3.3-3.4-4.6-7.2c-0.3-0.8-0.5-1-1.3-1h-2.9c-0.4,0-0.7,0.3-0.7,0.7
	c0,0.8,0.9,4.3,4.4,9c2.4,3.2,5.5,4.9,8.2,4.9c1.7,0,2.1-0.3,2.1-1V29c0-0.6,0.2-0.9,0.6-0.9s1.1,0.1,2.7,1.7
	c1.9,1.8,2.1,2.6,3.1,2.6h3.2c0.3,0,0.6-0.2,0.6-0.7c0-0.7-0.9-2-2.4-3.5c-0.6-0.8-1.5-1.6-1.9-2C31.8,25.8,31.9,25.5,32.2,25z"/>
</svg>
