<?xml version="1.0" encoding="utf-8"?>
<!-- Generator: Adobe Illustrator 22.0.1, SVG Export Plug-In . SVG Version: 6.00 Build 0)  -->
<svg version="1.1" id="Layer_1" xmlns="http://www.w3.org/2000/svg" xmlns:xlink="http://www.w3.org/1999/xlink" x="0px" y="0px"
	 viewBox="0 0 50 50" style="enable-background:new 0 0 50 50;" xml:space="preserve">
<style type="text/css">
	.st0{fill:#FEFEFE;}
</style>
<g>
	<path class="st0" d="M25.3,35.6c-2.3,0-4.3-0.6-6.1-1.9l-4.2,1.4l1.3-4.1c-1.3-1.9-2.1-4-2.1-6.4c0-0.3,0-0.7,0.1-1
		c0.4-5.6,5.2-10,10.9-10s10.6,4.4,11,10.1c0,0.3,0,0.5,0,0.8C36.3,30.8,31.3,35.6,25.3,35.6L25.3,35.6z M38.5,24.4
		c-0.2-7.1-6.1-12.8-13.2-12.8S12.4,17.2,12,24.1c0,0.2,0,0.4,0,0.6c0,2.5,0.7,4.7,1.9,6.7l-2.4,7l7.3-2.3c1.9,1,4,1.7,6.4,1.7
		c7.3,0,13.2-5.9,13.2-13.1C38.5,24.6,38.5,24.5,38.5,24.4L38.5,24.4z"/>
	<path class="st0" d="M31.3,27.4c-0.3-0.2-2-0.9-2.2-1c-0.4-0.2-0.6-0.2-0.8,0.1c-0.2,0.3-0.8,1-1,1.2c-0.2,0.2-0.4,0.2-0.7,0.1
		c-0.3-0.2-1.3-0.5-2.6-1.5c-0.9-0.8-1.7-1.9-1.8-2.2c-0.2-0.3,0-0.5,0.1-0.6s0.3-0.4,0.5-0.5c0-0.1,0.1-0.1,0.1-0.1
		c0.1-0.1,0.1-0.2,0.2-0.4s0.1-0.4,0-0.5c-0.1-0.2-0.7-1.8-1-2.4S21.6,19,21.4,19s-0.4,0-0.6,0s-0.5,0.1-0.8,0.4
		c-0.3,0-1.1,0.8-1.1,2.4c0,0.4,0.1,0.7,0.2,1.1c0.3,1.1,1,2.1,1.1,2.3c0.2,0.2,2.3,3.5,5.5,4.9c3.3,1.2,3.3,0.8,3.9,0.8
		s2-0.7,2.2-1.5c0.3-0.7,0.3-1.3,0.2-1.5C31.9,27.6,31.7,27.5,31.3,27.4L31.3,27.4z"/>
</g>
</svg>
