<svg width="24" height="24" viewBox="0 0 24 24" fill="none" xmlns="http://www.w3.org/2000/svg">
  <path d="M19.2222 6.6C19.2222 6.04772 18.7745 5.6 18.2222 5.6C17.6699 5.6 17.2222 6.04772 17.2222 6.6H19.2222ZM6.77778 6.6C6.77778 6.04772 6.33006 5.6 5.77778 5.6C5.22549 5.6 4.77778 6.04772 4.77778 6.6H6.77778ZM4 5.6C3.44772 5.6 3 6.04772 3 6.6C3 7.15228 3.44772 7.6 4 7.6V5.6ZM20 7.6C20.5523 7.6 21 7.15228 21 6.6C21 6.04772 20.5523 5.6 20 5.6V7.6ZM14.7778 11.1C14.7778 10.5477 14.3301 10.1 13.7778 10.1C13.2255 10.1 12.7778 10.5477 12.7778 11.1H14.7778ZM12.7778 16.5C12.7778 17.0523 13.2255 17.5 13.7778 17.5C14.3301 17.5 14.7778 17.0523 14.7778 16.5H12.7778ZM11.2222 11.1C11.2222 10.5477 10.7745 10.1 10.2222 10.1C9.66994 10.1 9.22222 10.5477 9.22222 11.1H11.2222ZM9.22222 16.5C9.22222 17.0523 9.66994 17.5 10.2222 17.5C10.7745 17.5 11.2222 17.0523 11.2222 16.5H9.22222ZM7.44444 6.6C7.44444 7.15228 7.89216 7.6 8.44444 7.6C8.99673 7.6 9.44444 7.15228 9.44444 6.6H7.44444ZM14.5556 6.6C14.5556 7.15228 15.0033 7.6 15.5556 7.6C16.1078 7.6 16.5556 7.15228 16.5556 6.6H14.5556ZM17.2222 6.6V19H19.2222V6.6H17.2222ZM16.2222 20H7.77778V22H16.2222V20ZM6.77778 19V6.6H4.77778V19H6.77778ZM4 7.6H20V5.6H4V7.6ZM12.7778 11.1V16.5H14.7778V11.1H12.7778ZM9.22222 11.1V16.5H11.2222V11.1H9.22222ZM9.44444 6.6V5H7.44444V6.6H9.44444ZM10.4444 4H13.5556V2H10.4444V4ZM14.5556 5V6.6H16.5556V5H14.5556ZM13.5556 4C14.1078 4 14.5556 4.44771 14.5556 5H16.5556C16.5556 3.34315 15.2124 2 13.5556 2V4ZM7.77778 20C7.22549 20 6.77778 19.5523 6.77778 19H4.77778C4.77778 20.6569 6.12092 22 7.77778 22V20ZM9.44444 5C9.44444 4.44772 9.89216 4 10.4444 4V2C8.78759 2 7.44444 3.34315 7.44444 5H9.44444ZM17.2222 19C17.2222 19.5523 16.7745 20 16.2222 20V22C17.8791 22 19.2222 20.6569 19.2222 19H17.2222Z" fill="#9DA1A3"/>
</svg>
