<svg
  xmlns="http://www.w3.org/2000/svg"
  width="246"
  height="152"
  fill="none"
  viewBox="0 0 246 152"
>
  <path
    fill="#FF5722"
    fillRule="evenodd"
    d="M68.777 93.352c-.867 12.191-3.823 29.878 3.75 35.958 6.85 5.501 37.785 10.665 55.092 14.323 25.352 3.954 23.653 7.387 23.653-8.532 3.664-48.804 3.748-38.703-13.846-41.444-21.604-3.37-66.918-18.589-67.495-4.266"
    clipRule="evenodd"
  ></path>
  <path
    stroke="#000"
    strokeLinecap="round"
    strokeLinejoin="round"
    strokeWidth="3"
    d="M156.461 126.538c-.709-2.287.757-4.665 3.278-5.31 2.523-.646 5.141.686 5.853 2.972.712 2.287-.757 4.665-3.277 5.312-2.52.644-5.141-.687-5.854-2.974z"
    clipRule="evenodd"
  ></path>
  <path
    stroke="#000"
    strokeLinecap="round"
    strokeLinejoin="round"
    strokeWidth="3"
    d="M65.205 94.343c-1.107 13.081-4.88 32.058 4.783 38.581 8.742 5.903 48.214 11.444 70.296 15.368 11.341 2.014 29.745 4.587 30.181-9.154 1.104-34.986 4.782-41.526-17.667-44.468-27.566-3.614-85.385-19.944-86.121-4.576"
  ></path>
  <path
    stroke="#000"
    strokeLinecap="round"
    strokeLinejoin="round"
    strokeWidth="3"
    d="M167.168 147.322c3.785-1.688 8.308-5.99 8.472-11.169 1.104-35.15 4.787-41.72-17.679-44.676C130.379 87.847 69.945 68.81 67 87.205M68.593 118.482l.264-20.66M151.538 149.904l1.726-53.374M120.1 2.055l-72.855 53.56"
  ></path>
  <path
    fill="#FF5722"
    fillRule="evenodd"
    stroke="#000"
    strokeLinecap="round"
    strokeLinejoin="round"
    strokeWidth="3"
    d="M48.217 58.765a4.125 4.125 0 01-4.128 4.122 4.127 4.127 0 01-4.13-4.122 4.125 4.125 0 014.13-4.118 4.124 4.124 0 014.128 4.118z"
    clipRule="evenodd"
  ></path>
  <path
    stroke="#000"
    strokeLinecap="round"
    strokeLinejoin="round"
    strokeWidth="3"
    d="M124.136 4.915l73.989 57.407"
  ></path>
  <path
    fill="#FF5722"
    fillRule="evenodd"
    stroke="#000"
    strokeLinecap="round"
    strokeLinejoin="round"
    strokeWidth="3"
    d="M200.999 60.47a4.277 4.277 0 015.275 2.948 4.267 4.267 0 01-2.952 5.266 4.276 4.276 0 01-5.277-2.95 4.267 4.267 0 012.954-5.265z"
    clipRule="evenodd"
  ></path>
  <path
    fill="#fff"
    d="M117.595 112.774c0 5.145-4.825 11.768-8.352 11.768-3.528 0-6.388-4.171-6.388-9.316 0-5.146 5.808-8.336 9.336-8.336 3.527 0 5.404.739 5.404 5.884z"
  ></path>
  <path
    stroke="#000"
    strokeLinecap="round"
    strokeLinejoin="round"
    strokeWidth="3"
    d="M118.228 113.802c.243-6.199-4.726-9.004-9.726-6.189-4.658 2.622-7.81 11.542-2.96 15.734 7.44 6.43 13.726-12.242 14.973-16.6-1.247 4.709-4.812 12.72 0 16.808 3.207 2.725 7.582-1.155 8.942-4.15 2.299-5.063 1.099-13.072-2.911-17.224-8.421-8.714-24.731-6.692-30.573 4.757-2.228 4.367-4.016 8.94-2.352 15.027 1.323 4.842 4.56 7.841 8.802 10.307 13.737 7.982 28.332-2.329 38.206-11.569 30.873-28.886 58.028-19.917 46.735-17.541-3.029.637-6.716-1.838-6.654-5.665.317-19.751-33.754-25.81-32.733-33.964.301-2.413.954-5.13 3.271-6.488 3.358-1.97 3.303 1.61 1.719 3.79-1.884 2.595-5.502 5.23-8.546 3.063-4.101-2.922.341-17.63 3.555-15.74 4.318 2.54-11.334 18.06-11.031 5.57.083-3.393.526-8.672 3.131-11.17 1.13-1.084 1.737-1.476 2.899-.247 1.483 1.569.213 4.2-.564 5.861-1.663 3.561-7.339 9.377-11.866 7.279-3.012-1.398-2.433-5.954-2.334-8.716.075-2.057.034-8.502 2.91-9.254 3.774-.987 1.4 6.477.634 7.739-2.244 3.697-7.697 7.905-12.12 4.985-2.67-1.761-3.491-6.415-3.486-9.342.005-1.7.644-7.096 3.166-6.49 3.033.728 1.511 9.11.945 11.055-1.532 5.28-7.351 8.096-12.219 5.238-3.057-1.794-7.811-6.175-7.231-10.022.655-4.372 4.406-.148 5.568 1.921 1.869 3.332 4.993 11.601.59 14.442-5.461 3.525-16.866-4.6-14.27-10.93 3.062.504 5.38 5.032 6.404 7.647 1.737 4.431 1.387 10.179-3.331 12.46-3.395 1.641-8.268.184-11.073-2.075-1.514-1.217-5.375-6.02-2.444-7.847 2.57-1.606 4.572 4.247 5.042 5.769 1.436 4.645 3.231 4.084.572 8.656-1.643 2.827-4.479 5.109-7.543 3.31-3.27-1.92.184-10.47-1.014-16.882-.447-2.389-1.624-10.014-4.501-10.87-1.351-.405-2.354.588-2.75 1.866-.98 3.16 2.252 5.37 4.377 6.863 2.626 1.844 4.965 4.074 8.316 2.292 3.037-1.616 4.677-5.92 4.378-9.188-.258-2.824-1.545-9.278-3.92-11.13-1.731-1.352-2.68-.325-2.971 1.669-.531 3.647 5.921 11.282 9.738 10.923 6.7-.63 5.445-11.233 4.207-15.374-.413-1.385-1.078-4.86-3.122-4.515-1.216.206-1.607 2.029-1.668 3.066-.233 3.973 3.227 10.55 7.706 10.64 10.062.202 7.086-22.29 2.492-20.61-5.245 1.918 2.831 17.603 9.982 14.188 3.849-1.838 6.5-7.622 6.653-11.581.128-3.33.852-10.33-3.946-9.014-4.643 1.271-5.195 5.84-4.548 10.26.903 6.163 6.915 10.833 13.033 10.732 3.548-.058 6.085-2.32 8.142-5.01 1.32-1.727 7.657-11.195 3.738-12.217-7.1-1.85-8.921 18.167-3.114 20.974 3.951 1.912 7.353-1.215 9.57-4.105 1.214-1.58 6.886-10.037 1.919-10.02-3.724.01-4.925 5.783-5.042 8.512-.16 3.698.94 7.23 4.314 9.085 5.191 2.853 11.307-2.77 11.496-8.095.125-3.575-2.846-3.282-5.195-1.212-2.933 2.584-4.222 7.383-4.004 11.06.17 2.824.716 6.188 3.953 7.024 1.925.499 4.849-.172 6.522-1.14 2.244-1.296 5.568-4.053 5.798-6.812.243-2.915-2.409-2.493-4.425-1.557-4.69 2.184-9.258 10.178-6.809 15.293 1.915 3.998 8.142 3.645 10.982.947 3.194-3.038 1.944-8.168 3.413-11.944 1.049-2.703 2.437-6.753 5.09-8.29 1.715-.993 3.01-.897 4.219.623 1.509 1.893.492 3.725-.779 5.612-2.758 4.1-7.439 4.484-11.326 1.608-4.005-2.963-5.339-7.726-3.245-12.368 1.009-2.237 6.914-7.658 7.829-2.96.851 4.382-6.429 7.662-9.73 7.038-5.595-1.055-6.546-5.144-5.829-10.131.353-2.459 1.224-4.311 3.119-5.983.79-.697 3.41-2.477 4.595-1.462 1.372 1.178-.141 4.032-.984 5.005-1.937 2.236-5.955 3.986-8.815 4.522-4.422.83-7.864-1.158-7.897-5.777-.028-3.914 2.17-7.498 5.246-9.85 3.941-3.02 4.478 1.495 2.213 4.195-2.005 2.39-6.509 4.19-9.496 4.896a9.737 9.737 0 01-6.956-.979c-5.136-2.86-5.897-8.237-4.316-13.458.471-1.55 3.941-9.777 6.415-5.354 2.109 3.77-4.802 10.616-7.196 12.627-6.888 5.79-17.925 8.495-24.018.203-1.484-2.022-3.546-8.457.471-9.35 4.463-.988 4.834 8.138 4.53 10.596-.598 4.852-5.227 9.198-10.306 7.521-3.344-1.104-6.728-5.06-5.84-8.762 1.316-5.479 4.732.19 5.583 2.522 1.865 5.111 1.143 11.878-4.412 14.5-4.718 2.223-8.445-1.939-10.72-5.566-1.056-1.683-1.782-8.026 2.026-7.127 3.913.922 3.432 10.304 2.927 12.893-.458 2.349-2.916 6.359-5.194 7.42-2.893 1.351-7.61-1.035-9.583-3.062-1.517-1.554-2.774-7.392.824-7.073 3.524.312 4.67 8.087 4.584 10.654-.107 3.236-1.012 6.51-3.795 8.447-7.136 4.96-12.412-5.298-12.424-10.998"
  ></path>
</svg>
