<svg width="246" height="152" viewBox="0 0 246 152" fill="none" xmlns="http://www.w3.org/2000/svg">
<path fill-rule="evenodd" clip-rule="evenodd" d="M128.7 37.4516C119.735 44.2203 109.929 53.856 107.707 55.7918C97.7965 64.4283 110.55 68.2373 126.732 92.6908C126.732 98.2089 105.251 83.0692 103.115 82.2111C102.456 89.4895 103.223 92.428 93.274 85.2678C83.5949 78.2689 14.3304 42.2554 12.5992 38.9544C19.1417 38.5434 135.48 27.1898 135.554 31.6346C135.59 33.8005 128.582 37.3343 128.7 37.4516Z" fill="#FF5722"/>
<path d="M43.713 107.391C43.6979 107.58 43.6909 107.756 43.6909 107.92H43.2492C43.3817 107.741 43.5363 107.565 43.713 107.391ZM43.713 107.391C46.7427 78.5016 10.9498 91.3836 13.7913 112.197M43.713 107.391C53.4195 97.6699 63.9351 102.029 64.0508 112.638C70.823 109.654 87.4652 109.957 86.0572 121.73M9.90485 119.606C10.7881 119.312 13.7472 119.165 18.782 119.165C25.3775 119.165 39.0827 119.738 59.8993 120.884C78.5077 121.913 89.8581 122.619 93.9504 123M170.951 39.7691C168.455 23.8674 187.433 27.0405 189.589 39.7691C195.951 35.1426 219.55 32.3796 211.361 46.185C217.999 44.7281 236.529 41.0638 228.188 54.056M162.494 49.9349C162.494 49.9349 197.664 52.1096 237 55.49L162.494 49.9349Z" stroke="black" stroke-width="3" stroke-linecap="round" stroke-linejoin="round"/>
<path d="M124.328 103.657C129.88 106.169 135.615 107.843 141.608 108.9C152.789 110.876 163.009 110.956 173.326 105.632C179.115 102.646 186.033 92.3143 177.433 87.9154C170.272 84.2546 162.406 91.4007 160.399 97.9197C158.276 104.819 160.489 112.21 166.746 116.075C174.098 120.616 186.165 118.086 192.415 112.624C194.134 111.122 197.056 107.046 196.031 104.472C195.029 101.959 191.779 103.024 190.084 103.985C185.079 106.824 183.854 113.817 187.948 117.859C195.221 125.038 207.104 121.737 215.517 119.109M22.4031 45.635C26.7109 47.9411 105.419 93.0295 106.537 93.5887C106.537 90.2965 106.803 87.4144 107.332 84.946M22.4031 45.635C14.1443 41.2166 9.83118 38.8725 9.46285 38.6017L107.332 84.946M22.4031 45.635C33.3083 50.5454 48.4718 57.3291 67.8928 65.985C83.7444 73.2713 96.8905 79.5919 107.332 84.946M107.332 84.946C118.924 90.8847 127.183 95.6312 132.108 99.1888M103.99 61.4687C103.04 61.0251 76.7955 52.9407 61.7839 49.0232C41.7791 43.805 29.4191 41.3815 9 37.9183C9.14486 37.8336 137.968 29.4008 142.09 29.0771H145.976C139.764 35.015 107.857 63.2105 107.487 63.4936C109.92 66.4356 136.202 97.7195 138.645 100.512" stroke="black" stroke-width="3" stroke-linecap="round" stroke-linejoin="round"/>
</svg>
