<svg width="246" height="154" viewBox="0 0 246 154" fill="none" xmlns="http://www.w3.org/2000/svg">
<path fill-rule="evenodd" clip-rule="evenodd" d="M115.947 86.0765C104.766 86.5066 98.8611 86.7931 92.2942 88.2272C85.6052 89.688 79.274 92.0202 77.1349 98.8853C74.8926 106.083 73.3676 116.685 74.6638 124.359C76.0572 132.616 85.2096 134.353 92.3897 134.683C98.8852 134.981 107.203 133.518 113.302 134.747C113.792 139.833 117.118 145.904 119.28 150.46C121.355 144.607 124.675 134.67 128.849 129.951C144.675 134.321 155.512 126.51 155.942 107.584C156.105 100.396 157.336 93.9068 151.211 89.0875C143.321 82.8779 130.939 85.6463 121.538 85.6463" fill="#FF5722"/>
<path fill-rule="evenodd" clip-rule="evenodd" d="M176.245 15.4697C168.859 15.1892 161.868 10.4731 154.371 9.77372C146.936 9.07947 142.649 15.7295 139.95 21.7928C137.356 27.6178 135.255 35.6624 136.231 42.1369C137.075 47.7477 143.602 50.0456 148.224 51.3506C150.856 52.0939 153.557 52.9112 156.11 53.6812C159.169 54.6051 158.898 55.0679 159.65 58.4222C160.75 63.319 162.016 69.2558 161.77 74.2412C163.907 71.9967 165.353 67.3512 167.554 65C169.408 63.0187 171.746 58.7422 173.144 56.3971C177.434 58.6433 183.466 61.1467 188.196 62.4191C191.798 63.3887 198.234 64.4021 201.958 63.2794C206.894 61.7902 208.594 56.9184 210.16 52.4879C212.215 46.6689 214.598 39.9165 214.368 33.6356C214.086 25.9403 208.963 24.5819 202.611 22.4578C198.102 20.9497 193.618 20.5144 188.979 19.5827C184.503 18.6837 180.055 17.2169 175.664 16.0633" fill="#FF5722"/>
<path fill-rule="evenodd" clip-rule="evenodd" d="M89.0025 4.20501C78.461 9.64462 66.0119 15.7054 54.5983 20.4077C47.1283 23.4858 33.8621 27.0448 30.5171 35.2073C27.7287 42.0121 39.2558 58.8764 44.5454 63.6966C54.1321 72.4328 61.2022 58.7671 70.272 60.5299C75.5074 61.5467 81.3639 70.4825 86.1469 73.5426C89.2872 66.2172 86.9167 56.1519 89.0713 48.2578C99.7572 42.715 113.116 38.602 110.245 25.6933C107.425 13.0127 105.169 3.12277 93.2273 3.12793" fill="#FF5722"/>
<path d="M82.7441 5.53671C75.1227 8.33007 35.9948 23.5684 31.6763 31.9536C28.333 38.4402 28.8783 44.4037 43.8011 64.4794C49.0418 71.5321 59.9746 64.1439 67.0059 61.9313C70.9658 60.6847 84.0248 73.2699 87.7731 75.6494C87.9684 71.9958 89.557 51.7945 90.6674 50.8301C91.7778 49.8666 102.252 44.8967 105.607 42.9507C117.483 36.0589 113.432 21.1535 107.385 10.6227C100.528 -1.32151 95.5012 2.09298 87.571 3.7585" stroke="black" stroke-width="3" stroke-linecap="round" stroke-linejoin="round"/>
<path fill-rule="evenodd" clip-rule="evenodd" d="M56.5705 39.8351C56.5688 35.8572 55.0705 30.3917 59.0442 28.1412C62.8166 26.0051 66.7826 29.571 68.0658 33.0337C70.6212 39.9366 68.4314 49.3069 66.9339 56.074C62.1569 55.3367 58.7027 54.2114 55.5513 53.3021C51.2276 52.0547 47.1988 49.4867 44.3691 45.8666C41.8335 42.6233 41.025 37.4676 45.3806 35.7746C48.9853 34.374 53.0467 36.4662 55.8076 38.8183" fill="white"/>
<path d="M56.5705 39.8351C56.5688 35.8572 55.0705 30.3917 59.0442 28.1412C62.8166 26.0051 66.7826 29.571 68.0658 33.0337C70.6212 39.9366 68.4314 49.3069 66.9339 56.074C62.1569 55.3367 58.7027 54.2114 55.5513 53.3021C51.2276 52.0547 47.1988 49.4867 44.3691 45.8666C41.8335 42.6233 41.025 37.4676 45.3806 35.7746C48.9853 34.374 53.0467 36.4662 55.8076 38.8183" stroke="black" stroke-width="3" stroke-linecap="round" stroke-linejoin="round"/>
<path d="M73.5937 29.166C69.9856 23.5268 77.9656 17.6949 79.6342 25.6096C80.9579 31.8777 78.9814 38.9071 79.2042 45.3464C82.3547 43.692 85.9878 41.6858 88.8339 39.5867" stroke="black" stroke-width="3" stroke-linecap="round" stroke-linejoin="round"/>
<path d="M94.1749 13.416C91.032 15.1865 87.6002 16.889 84.7378 18.9916C86.6068 21.778 88.9497 24.851 90.3543 27.8224C91.7588 24.3365 96.4292 22.813 98.5528 26.1853C100.54 29.3426 99.5531 34.0156 96.2021 35.5229" stroke="black" stroke-width="3" stroke-linecap="round" stroke-linejoin="round"/>
<path d="M176.851 16.0298C172.53 14.7523 154.691 10.2616 150.684 11.1976C140.549 13.5634 139.25 20.3425 136.453 33.8094C135.221 39.7506 135.085 46.7516 141.279 50.0732C146.304 52.7685 153.123 54.8857 158.513 55.9584C158.613 59.3187 159.807 62.8502 160.13 66.2819C160.46 69.7979 160.785 73.3251 161.392 76.7379C164.352 73.0128 166.747 69.6973 169.727 65.8328C171.857 63.0722 172.513 60.5421 176.08 61.7688C180.523 63.2958 184.649 64.8719 189.232 65.6444C193.163 66.3086 198.387 68.036 202.245 66.3473C210.741 62.63 213.008 52.1689 214.699 43.9884C215.671 39.2869 216.932 33.5462 214.955 28.9961C213.258 25.093 186.251 18.8266 180.153 17.3013" stroke="black" stroke-width="3" stroke-linecap="round" stroke-linejoin="round"/>
<path fill-rule="evenodd" clip-rule="evenodd" d="M159.824 44.9941C152.709 46.5177 147.499 43.6039 146.665 35.8561C145.428 24.3472 156.635 17.741 166.941 20.3486C176.642 22.8038 175.77 34.5657 169.479 39.4057C167.331 41.0592 165.32 40.9095 165.668 43.7071C166.088 47.0829 166.743 51.3439 167.19 54.6517C165.618 53.1497 160.951 45.8871 159.824 44.9941Z" fill="white"/>
<path fill-rule="evenodd" clip-rule="evenodd" d="M159.824 44.9941C152.709 46.5177 147.499 43.6039 146.665 35.8561C145.428 24.3472 156.635 17.741 166.941 20.3486C176.642 22.8038 175.77 34.5657 169.479 39.4057C167.331 41.0592 165.32 40.9095 165.668 43.7071C166.088 47.0829 166.743 51.3439 167.19 54.6517C165.618 53.1497 160.951 45.8871 159.824 44.9941Z" stroke="black" stroke-width="3" stroke-linecap="round" stroke-linejoin="round"/>
<path d="M178.37 37.1202C182.017 34.9489 185.674 32.4377 189.071 29.8379C187.576 32.399 182.942 45.761 181.418 50.3343" stroke="black" stroke-width="3" stroke-linecap="round" stroke-linejoin="round"/>
<path d="M193.36 37.1231C194.885 30.2631 202.975 29.4863 202.27 35.7853C201.918 38.9142 198.832 42.3665 196.662 44.2394C193.991 46.5432 190.563 48.3034 187.096 50.603C190.755 51.446 194.881 53.1322 199.199 54.6575" stroke="black" stroke-width="3" stroke-linecap="round" stroke-linejoin="round"/>
<path d="M128.263 133.274C125.466 140.389 124.333 145.396 120.884 152C119.705 148.889 118.006 145.677 116.574 142.619C115.778 140.918 113.955 135.62 112.286 134.784C110.321 133.797 85.8558 136.478 81.7084 134.281C73.2862 129.818 75.1397 116.464 75.4253 108.363C75.5922 103.642 76.952 93.8782 82.0343 91.0849C92.7435 85.1962 121.646 84.9932 130.558 84.9958C135.291 84.9975 148.67 84.1535 152.659 87.2867C156.625 90.401 157.321 98.7053 157.484 103.296C157.753 110.926 158.6 119.956 153.669 126.418C149.473 131.917 135.596 131.243 129.279 131.242" stroke="black" stroke-width="3" stroke-linecap="round" stroke-linejoin="round"/>
<path fill-rule="evenodd" clip-rule="evenodd" d="M112.006 119.676C112.005 123.535 105.806 126.662 98.1593 126.661C90.513 126.66 84.3151 123.53 84.3159 119.671C84.3159 115.811 90.5155 112.683 98.1619 112.685C105.808 112.686 112.007 115.817 112.006 119.676Z" fill="white"/>
<path fill-rule="evenodd" clip-rule="evenodd" d="M112.006 119.676C112.005 123.535 105.806 126.662 98.1593 126.661C90.513 126.66 84.3151 123.53 84.3159 119.671C84.3159 115.811 90.5155 112.683 98.1619 112.685C105.808 112.686 112.007 115.817 112.006 119.676Z" stroke="black" stroke-width="3" stroke-linecap="round" stroke-linejoin="round"/>
<path fill-rule="evenodd" clip-rule="evenodd" d="M112.007 113.832C112.006 117.691 105.806 120.818 98.1601 120.818C90.5138 120.816 84.3159 117.686 84.3167 113.827C84.3176 109.968 90.5163 106.84 98.1627 106.841C105.809 106.842 112.008 109.973 112.007 113.832Z" fill="white"/>
<path fill-rule="evenodd" clip-rule="evenodd" d="M112.007 113.832C112.006 117.691 105.806 120.818 98.1601 120.818C90.5138 120.816 84.3159 117.686 84.3167 113.827C84.3176 109.968 90.5163 106.84 98.1627 106.841C105.809 106.842 112.008 109.973 112.007 113.832Z" stroke="black" stroke-width="3" stroke-linecap="round" stroke-linejoin="round"/>
<path fill-rule="evenodd" clip-rule="evenodd" d="M112.008 107.988C112.007 111.847 105.808 114.973 98.1618 114.972C90.5155 114.971 84.3167 111.842 84.3176 107.983C84.3184 104.123 90.5181 100.995 98.1644 100.997C105.811 100.998 112.009 104.129 112.008 107.988Z" fill="white"/>
<path fill-rule="evenodd" clip-rule="evenodd" d="M112.008 107.988C112.007 111.847 105.808 114.973 98.1618 114.972C90.5155 114.971 84.3167 111.842 84.3176 107.983C84.3184 104.123 90.5181 100.995 98.1644 100.997C105.811 100.998 112.009 104.129 112.008 107.988Z" stroke="black" stroke-width="3" stroke-linecap="round" stroke-linejoin="round"/>
<path fill-rule="evenodd" clip-rule="evenodd" d="M112.771 102.017C112.771 105.876 106.572 109.003 98.9253 109.002C91.279 109 85.0802 105.871 85.0802 102.012C85.0811 98.1527 91.2815 95.0246 98.9279 95.0264C106.574 95.0281 112.772 98.1578 112.771 102.017Z" fill="white"/>
<path fill-rule="evenodd" clip-rule="evenodd" d="M112.771 102.017C112.771 105.876 106.572 109.003 98.9253 109.002C91.279 109 85.0802 105.871 85.0802 102.012C85.0811 98.1527 91.2815 95.0246 98.9279 95.0264C106.574 95.0281 112.772 98.1578 112.771 102.017Z" stroke="black" stroke-width="3" stroke-linecap="round" stroke-linejoin="round"/>
<path d="M119.374 116.755C119.098 119.836 120.355 122.43 123.446 123.317C128.29 124.707 131.184 120.372 132.349 116.25C133.714 111.413 136.029 94.2253 126.236 98.4433C120.779 100.795 117.421 112.038 125.541 112.95C130.067 113.458 132.423 108.996 133.348 105.323" stroke="black" stroke-width="3" stroke-linecap="round" stroke-linejoin="round"/>
<path d="M136.395 117.013C136.454 124.662 142.234 125.915 147.063 120.139C150.209 116.374 153.376 101.504 145.867 100.041C139.387 98.7794 137.081 110.399 141.153 113.926C144.229 116.591 149.352 114.982 150.369 110.409" stroke="black" stroke-width="3" stroke-linecap="round" stroke-linejoin="round"/>
<path d="M59.4254 77.3589L70.3479 88.0334" stroke="black" stroke-width="3" stroke-linecap="round" stroke-linejoin="round"/>
<path d="M43.4169 100.733L62.7245 99.9746" stroke="black" stroke-width="3" stroke-linecap="round" stroke-linejoin="round"/>
<path d="M45.9519 129.447L62.7205 121.573" stroke="black" stroke-width="3" stroke-linecap="round" stroke-linejoin="round"/>
<path d="M162.311 93.6411L177.557 84.2407" stroke="black" stroke-width="3" stroke-linecap="round" stroke-linejoin="round"/>
<path d="M166.628 110.667L189.237 114.483" stroke="black" stroke-width="3" stroke-linecap="round" stroke-linejoin="round"/>
<path d="M161.544 127.944L178.054 140.905" stroke="black" stroke-width="3" stroke-linecap="round" stroke-linejoin="round"/>
</svg>
