<svg
  xmlns="http://www.w3.org/2000/svg"
  width="246"
  height="152"
  fill="none"
  viewBox="0 0 246 152"
>
  <g clip-path="url(#clip0)">
    <path
      fill="#FF5722"
      fillRule="evenodd"
      d="M114.622 34.442c-2.242 1.435-4.38 4.127-6.247 6.045-2.657 2.73-5.405 5.594-8.544 7.784-4.827 3.37-9.811 6.528-14.873 9.507-6.522 3.838-13.117 7.91-20.284 10.23 1.428 1.617 5.72 2.768 7.792 3.556 1.287.49 4.56 1.93 5.904 1.602 1.782-.435 4.224-3.825 5.717-4.984 2.623-2.039 5.137-4.015 7.629-6.218 7.377-6.52 14.557-13.921 19.648-22.333 1.115-1.843 2.023-3.976 3.258-5.708M97.099 73.327c.022 1 8.649.519 10.062.519.805 0 4.555.53 5.17-.026.853-.773.384-5.293.383-6.498-.003-2.209.168-4.397.351-6.569.654-7.782 1.015-16 2.463-23.68.084-.445.202-1.084.269-1.411.053 1.43-1.279 3.53-1.909 4.867-.879 1.87-1.948 3.678-2.918 5.496-1.802 3.382-3.29 7.006-4.681 10.58-1.477 3.798-3.421 6.981-5.725 10.326-1.27 1.846-3.018 4.366-3.811 6.396M130.236 72.463c2.158.146 4.233-.739 6.372-.872 5.689-.356 11.368-.55 17.058-.995 7.032-.55 13.745-2.525 20.61-3.987-.601 4.726-2.489 9.264-7.65 11.005-6.417 2.163-11.765-3.04-16.175-6.836-5.713-4.917-10.756-10.677-15.352-16.634-4.384-5.681-9.13-11.132-13.663-16.64-.87-1.055-2.626-1.85-3.132-3.048-.63 7.982 1.585 14.878 4.124 22.28 1.136 3.31 2.326 6.508 4.034 9.544 1.04 1.847 2.416 4.843 3.948 6.183M113.927 74.536c-1.369.608 2.465 4.868 3.605 5.501 1.784.99 3.951.856 5.803.241 2.575-.855 6.619-3.588 6.181-6.752-1.288-.018-2.598.575-3.917.665-1.735.116-3.518 0-5.256 0-2.298 0-4.474.173-6.762.173M80.27 73.846c-.75 5.282 6.002 7.4 9.885 6.178 2.413-.758 5.951-2.825 6.05-5.635-5.084-.145-10.123-.889-15.24-.889M97.446 75.574c1.177.994 1.34 3.091 3.297 3.975 1.605.725 3.005 1.078 4.679.733 2.849-.587 5.035-2.035 6.607-4.475.307 4.162-1.393 8.942-2.048 13.07-.892 5.626-2.264 11.146-3.387 16.729-2.024 10.049-5.03 18.164-9.495 27.345-.693 1.425-1.663 5.2-3.123 5.185-1.405-.013-4.6-1.39-6.11-1.686a157.235 157.235 0 00-6.377-1.122c-1.715-.262-3.679-1.207-5.36-.67 2.694-2.637 4.463-6.14 6.257-9.51 2.262-4.246 4.407-8.308 6.21-12.762 3.254-8.029 4.562-15.193 6.421-23.677.624-2.847 1.04-5.704 1.909-10.715M64.135 71.945c-.5 4.244 4.908 6.89 8.463 6.178 2.165-.434 4.899-1.62 6.123-3.525-.608 1.86-.649 3.75-1.088 5.64-.598 2.574-1.657 5.082-2.438 7.607-1.645 5.324-3.325 10.433-5.512 15.563-2.305 5.405-4.451 10.907-7.627 15.869-1.228 1.919-2.383 3.858-3.647 5.725-.935 1.383-2.207 2.606-2.805 4.117-1.846-.285-4.623-.871-6.563-1.352-1.778-.441-4.333-1.417-6.073-1.037 3.68-3.207 6.173-10.192 8.333-14.471 2.257-4.469 3.909-9.183 5.07-14.045 2.095-8.768 5.782-17.096 7.764-25.924"
      clipRule="evenodd"
    ></path>
    <path
      fill="#FF5722"
      fillRule="evenodd"
      d="M130.583 76.093c1.883 6.374 1.624 13.787 2.738 20.397.856 5.078 1.917 10.185 3.334 15.165 1.402 4.926 3.201 9.94 5.07 14.69 1.115 2.832 3.056 5.78 3.809 8.654 4.102.22 8.278-.29 12.293-.881 2.378-.35 8.555-.485 9.866-2.688-2.656-1.497-3.721-7.572-4.802-10.231-2.254-5.544-3.337-11.838-4.597-17.641-1.174-5.405-2.765-10.635-4.246-15.926-1.135-4.052-.91-8.643-2.164-12.577-.34-1.069-.806-2.064-1.219-3.093-2.93 2.97-6.124 6.99-10.502 7.98-3.191.72-8.665-.196-9.407-4.023M117.466 17.916c.581 2.991-.32 7.283.022 10.661 4.182-1.296 7.916-.536 12.155-.328 1.968.097 5.322.1 6.917-.923-2.952-1.552-5.648-3.664-8.497-5.208 2.472-1.248 4.793-3.098 7.275-4.385-2.644.087-5.285-1.607-8.031-1.742-2.742-.134-8.612.322-10.193 2.275"
      clipRule="evenodd"
    ></path>
    <path
      stroke="#000"
      strokeLinecap="round"
      strokeLinejoin="round"
      strokeWidth="3"
      d="M116.427 14.022l.659 18.382M63.484 68.73c12.89-3.514 41.959-22.978 53.602-36.983M174.203 66.104c-13.035-.724-49.647-26.26-56.458-33.7M63.265 68.95c21.601 6.158 41.608 5.298 63.706 4.375 10.567-.44 40.861-5.033 47.233-7.221M94.898 138.099c10.105-18.601 16.037-41.797 18.453-63.68M126.752 137.881c-4.98-9.144-7.249-19.038-10.105-31.512-2.516-10.983-3.632-22.29-3.295-31.95M41.736 126.939c8.758-8.101 19.331-36.982 22.188-57.333M191.118 128.252c-10.455-19.088-16.915-39.886-16.915-61.93M41.736 126.939L94.899 138.1M127.411 138.318l63.707-10.066M57.992 129.346c12.522-17.287 17.575-32.168 21.968-56.458M77.544 133.723c12.302-20.133 16.476-37.64 19.112-59.96M130.267 73.106c1.099 12.693 7.689 44.643 15.597 62.149M150.917 70.7c1.757 14.443 7.688 41.796 16.256 60.178M79.74 72.013c13.84-9.191 29.218-23.635 37.346-39.609M130.267 72.67c-6.811-10.286-10.105-22.322-13.181-40.266M150.917 70.7c-13.62-11.38-29.567-31.302-33.172-37.858M116.427 32.842l-3.734 40.702M96.656 73.326c3.734-3.94 13.84-20.79 19.99-40.265M116.867 17.962c2.63-3.878 10.341-5.154 14.29-3.064 3.467 1.835 4.723 3.462 8.698 2.165-3.176 2.645-7.424 3.172-10.669 4.99 2.917 1.716 5.64 4.626 8.967 5.58-4.839 5.245-15.226-2.895-20.847 2.145"
    ></path>
    <path
      stroke="#000"
      strokeLinecap="round"
      strokeLinejoin="round"
      strokeWidth="3"
      d="M16.473 19.93c14.47 11.792 25.724 19.099 44.99 21.826 19.218 2.72 39.027 1.06 55.842-9.352M116.874 31.511c18.412 7.928 32.321 12.278 53.956 10.183 21.582-2.088 42.836-8.593 58.877-22.896"
    ></path>
    <path
      stroke="#000"
      strokeLinecap="round"
      strokeLinejoin="round"
      strokeWidth="3"
      d="M30.751 34.264c0 2.599-2.115 4.705-4.723 4.705-2.608 0-4.723-2.106-4.723-4.705 0-2.598 2.115-4.704 4.723-4.704 2.608 0 4.723 2.106 4.723 4.704zM49.974 43.018c0 2.598-2.115 4.704-4.723 4.704-2.608 0-4.723-2.106-4.723-4.704 0-2.599 2.115-4.705 4.723-4.705 2.608 0 4.723 2.106 4.723 4.705zM76.445 47.94c0 2.6-2.115 4.706-4.723 4.706-2.608 0-4.722-2.107-4.722-4.705 0-2.599 2.114-4.705 4.722-4.705 2.608 0 4.723 2.106 4.723 4.705zM158.386 47.066c0 2.598-2.115 4.704-4.723 4.704-2.608 0-4.723-2.106-4.723-4.704 0-2.599 2.115-4.705 4.723-4.705 2.608 0 4.723 2.106 4.723 4.705zM190.24 44.659c0 2.598-2.115 4.704-4.723 4.704-2.609 0-4.723-2.106-4.723-4.704 0-2.599 2.114-4.705 4.723-4.705 2.608 0 4.723 2.106 4.723 4.705zM218.139 35.905c0 2.599-2.115 4.705-4.723 4.705-2.608 0-4.723-2.106-4.723-4.705 0-2.598 2.115-4.704 4.723-4.704 2.608 0 4.723 2.106 4.723 4.704z"
      clipRule="evenodd"
    ></path>
    <path
      stroke="#000"
      strokeLinecap="round"
      strokeLinejoin="round"
      strokeWidth="3"
      d="M64.363 69.606c-1.707 4.016 3.342 8.464 7.03 8.539 3.894.078 6.688-2.355 8.567-5.257M97.315 73.982c.706 9.477 13.55 8.82 15.159.219M130.706 73.544c.532 5.39 7.95 6.944 12.132 5.252 3.572-1.445 6.537-4.546 7.859-7.878M80.839 73.763c-.446 5.12 3.7 9.01 8.776 7.609 3.507-.967 5.17-3.71 6.382-6.734M113.352 73.982c-.23 4.414 5.476 8.644 9.885 7.22 3.805-1.227 5.744-3.798 6.151-7.439M151.356 70.7c4.235 5.774 9.676 9.318 16.696 5.519 3.564-1.93 6.07-5.46 6.151-9.459"
    ></path>
  </g>
  <defs>
    <clipPath id="clip0">
      <path
        fill="#fff"
        d="M0 0H216V128H0z"
        transform="translate(15 12)"
      ></path>
    </clipPath>
  </defs>
</svg>
